# xmcd CD database file
#
# Track frame offsets:
#	150
#	18049
#	31916
#	45398
#	60986
#	70850
#	88878
#	108976
#	125632
#	139757
#	159345
#	172891
#	193837
#	213833
#	232558
#	251597
#	266937
#	280286
#	298482
#	310319
#	316288
#	322278
#
# Disc length: 4478 seconds
#
# Revision: 0
# Processed by: cddbd v1.5.2PL0 Copyright (c) Steve Scherf et al.
# Submitted via: CDex 1.70beta2
#
DISCID=3f117c16
DTITLE=Rick Nelson - The last time around CD 1
DYEAR=2010
DGENRE=Country
TTITLE0=We've got such a long way to go
TTITLE1=California
TTITLE2=How long
TTITLE3=Sweet Mary
TTITLE4=Down along the Bayou Country
TTITLE5=My woman
TTITLE6=Anytime
TTITLE7=Mr. Dolphin
TTITLE8=Look at Mary
TTITLE9=The reason why
TTITLE10=Life
TTITLE11=Just like a woman
TTITLE12=The last time around
TTITLE13=Gypsy Pilot
TTITLE14=Honky tonk woman
TTITLE15=Sing me a song
TTITLE16=Love minus zero
TTITLE17=Thank you lord (long version)
TTITLE18=This train
TTITLE19=Song for Kristin
TTITLE20=Song for Kristin (Reprise)
TTITLE21=Feel so good
EXTD=YEAR: 2010
EXTT0=
EXTT1=
EXTT2=
EXTT3=
EXTT4=
EXTT5=
EXTT6=
EXTT7=
EXTT8=
EXTT9=
EXTT10=
EXTT11=
EXTT12=
EXTT13=
EXTT14=
EXTT15=
EXTT16=
EXTT17=
EXTT18=
EXTT19=
EXTT20=
EXTT21=
PLAYORDER=
